<svg width="89" height="90" viewBox="0 0 89 90" fill="none" xmlns="http://www.w3.org/2000/svg">
    <path
        d="M45.2939 73.2983C48.7158 73.2737 52.5968 72.0644 56.3491 70.9467C63.0387 68.9542 64.6714 66.4775 68.7748 60.8309C75.8635 51.0766 72.9299 42.8225 69.0833 31.3945C67.3239 26.1673 62.877 18.7083 62.877 18.7083C62.877 18.7083 58.2744 10.2003 52.9888 8.69036C50.1928 7.89164 48.4237 8.17513 45.5437 8.57636C42.5096 8.99906 40.8367 9.62404 38.0507 10.898C34.9339 12.3232 33.2946 13.4437 30.6748 15.6533C27.6653 18.1916 26.2852 27.8752 23.8455 30.9652C15.1811 41.9394 7.51249 43.899 10.094 54.0806C10.6982 56.4633 11.3531 57.741 12.629 59.842C14.6335 63.143 16.0196 65.1736 19.3902 67.0586C21.9061 68.4656 21.7982 68.7895 26.7281 69.8209C29.4315 70.3865 31.1183 71.8952 34.4161 72.7786C38.5241 73.8791 41.6616 73.3245 45.2939 73.2983Z"
        fill="#FFC107" />
    <g clip-path="url(#clip0_808_28)">
        <path
            d="M58.7074 32.4118L59.3333 31.4506C60.3702 29.8581 62.5017 29.4077 64.0942 30.4446C65.6868 31.4815 66.1372 33.613 65.1003 35.2055L64.4745 36.1667M58.7074 32.4118C58.7074 32.4118 59.1629 34.077 60.9651 35.2504C62.7673 36.4238 64.4745 36.1667 64.4745 36.1667M58.7074 32.4118L52.9539 41.2483C52.5642 41.8468 52.3694 42.146 52.2145 42.4633C52.0317 42.8376 51.8903 43.2307 51.7927 43.6356C51.71 43.9789 51.6696 44.3337 51.5887 45.0433L51.3297 47.3152L51.2459 48.0502M64.4745 36.1667L58.7209 45.0032C58.3312 45.6017 58.1364 45.901 57.9089 46.171C57.6405 46.4895 57.3382 46.7779 57.0074 47.0309C56.727 47.2455 56.4188 47.426 55.8026 47.787L53.8297 48.943L53.1914 49.317M53.1914 49.317L52.5531 49.691C52.2499 49.8686 51.8723 49.8597 51.5777 49.668C51.2832 49.4762 51.1223 49.1345 51.1621 48.7853L51.2459 48.0502M53.1914 49.317L51.2459 48.0502"
            stroke="#1A3248" stroke-opacity="0.85" stroke-width="1.5" />
        <path d="M39.246 47.5391L43.5923 47.0388" stroke="#1A3248" stroke-opacity="0.85"
            stroke-width="1.5" stroke-linecap="round" />
        <path d="M38.4457 40.585L49.7461 39.2844" stroke="#1A3248" stroke-opacity="0.85"
            stroke-width="1.5" stroke-linecap="round" />
        <path d="M40.0464 54.4932L42.6542 54.193" stroke="#1A3248" stroke-opacity="0.85"
            stroke-width="1.5" stroke-linecap="round" />
        <path
            d="M30.7535 50.2783L29.9532 43.3242C29.1986 36.7678 28.8213 33.4896 30.6236 31.2184C32.426 28.9472 35.7042 28.5699 42.2606 27.8153L45.7376 27.4151C52.294 26.6605 55.5722 26.2832 57.8434 28.0856M62.047 46.6766C62.8016 53.233 63.1789 56.5112 61.3765 58.7824M34.1567 61.9152C36.4279 63.7176 39.7061 63.3403 46.2625 62.5857L49.7395 62.1855C56.2959 61.4309 59.5741 61.0536 61.3765 58.7824M61.3765 58.7824C62.8273 56.9541 62.8658 54.4734 62.432 50.1554"
            stroke="#1A3248" stroke-opacity="0.85" stroke-width="1.5" stroke-linecap="round" />
    </g>
    <defs>
        <clipPath id="clip0_808_28">
            <rect x="25" y="24" width="42" height="42" rx="5" fill="#1A3248" />
        </clipPath>
    </defs>
</svg>
