<svg width="89" height="90" viewBox="0 0 89 90" fill="none" xmlns="http://www.w3.org/2000/svg">
    <path
        d="M45.2939 73.2983C48.7158 73.2737 52.5968 72.0644 56.3491 70.9467C63.0387 68.9542 64.6714 66.4775 68.7748 60.8309C75.8635 51.0766 72.9299 42.8225 69.0833 31.3945C67.3239 26.1673 62.877 18.7083 62.877 18.7083C62.877 18.7083 58.2744 10.2003 52.9888 8.69036C50.1928 7.89164 48.4237 8.17513 45.5437 8.57636C42.5096 8.99906 40.8367 9.62404 38.0507 10.898C34.9339 12.3232 33.2946 13.4437 30.6748 15.6533C27.6653 18.1916 26.2852 27.8752 23.8455 30.9652C15.1811 41.9394 7.51249 43.899 10.094 54.0806C10.6982 56.4633 11.3531 57.741 12.629 59.842C14.6335 63.143 16.0196 65.1736 19.3902 67.0586C21.9061 68.4656 21.7982 68.7895 26.7281 69.8209C29.4315 70.3865 31.1183 71.8952 34.4161 72.7786C38.5241 73.8791 41.6616 73.3245 45.2939 73.2983Z"
        fill="#78E9DC" />
    <path
        d="M48.375 58.125H39.625M48.375 58.125C48.375 56.8763 48.375 56.252 48.4416 55.8377C48.6566 54.5017 48.6942 54.4176 49.5461 53.3663C49.8102 53.0403 50.791 52.1621 52.7522 50.406C55.4361 48.0028 57.125 44.5111 57.125 40.625C57.125 39.091 56.8618 37.6184 56.3782 36.25M48.375 58.125C48.375 59.7606 48.375 60.5784 48.0233 61.1875C47.7929 61.5866 47.4616 61.9179 47.0625 62.1483C46.4534 62.5 45.6356 62.5 44 62.5C42.3644 62.5 41.5466 62.5 40.9375 62.1483C40.5384 61.9179 40.2071 61.5866 39.9767 61.1875C39.625 60.5784 39.625 59.7606 39.625 58.125M39.625 58.125C39.625 56.8763 39.625 56.252 39.5584 55.8377C39.3434 54.5017 39.3058 54.4176 38.4539 53.3663C38.1898 53.0403 37.209 52.1621 35.2478 50.406C32.5639 48.0028 30.875 44.5111 30.875 40.625C30.875 33.3763 36.7513 27.5 44 27.5C46.3864 27.5 48.6241 28.1369 50.5523 29.25"
        stroke="#1A3248" stroke-opacity="0.85" stroke-width="1.5" stroke-linecap="round" />
    <path d="M45.3748 38.875L41.6248 44.125H46.8748L43.1248 49.375" stroke="#1A3248"
        stroke-opacity="0.85" stroke-width="1.5" stroke-linecap="round" stroke-linejoin="round" />
</svg>
