<svg xmlns="http://www.w3.org/2000/svg" viewBox="0 0 500 500">
    <g id="freepik--background-complete--inject-2">
        <rect y="382.4" width="500" height="0.25" style="fill:#ebebeb"></rect>
        <rect x="416.78" y="398.49" width="33.12" height="0.25" style="fill:#ebebeb"></rect>
        <rect x="322.53" y="401.21" width="8.69" height="0.25" style="fill:#ebebeb"></rect>
        <rect x="396.59" y="389.21" width="19.19" height="0.25" style="fill:#ebebeb"></rect>
        <rect x="52.46" y="390.89" width="43.19" height="0.25" style="fill:#ebebeb"></rect>
        <rect x="104.56" y="390.89" width="6.33" height="0.25" style="fill:#ebebeb"></rect>
        <rect x="131.47" y="395.11" width="93.68" height="0.25" style="fill:#ebebeb"></rect>
        <path
            d="M237,337.8H43.91a5.71,5.71,0,0,1-5.7-5.71V60.66A5.71,5.71,0,0,1,43.91,55H237a5.71,5.71,0,0,1,5.71,5.71V332.09A5.71,5.71,0,0,1,237,337.8ZM43.91,55.2a5.46,5.46,0,0,0-5.45,5.46V332.09a5.46,5.46,0,0,0,5.45,5.46H237a5.47,5.47,0,0,0,5.46-5.46V60.66A5.47,5.47,0,0,0,237,55.2Z"
            style="fill:#ebebeb"></path>
        <path
            d="M453.31,337.8H260.21a5.72,5.72,0,0,1-5.71-5.71V60.66A5.72,5.72,0,0,1,260.21,55h193.1A5.71,5.71,0,0,1,459,60.66V332.09A5.71,5.71,0,0,1,453.31,337.8ZM260.21,55.2a5.47,5.47,0,0,0-5.46,5.46V332.09a5.47,5.47,0,0,0,5.46,5.46h193.1a5.47,5.47,0,0,0,5.46-5.46V60.66a5.47,5.47,0,0,0-5.46-5.46Z"
            style="fill:#ebebeb"></path>
        <rect x="304.18" y="126.61" width="116.7" height="129.13" style="fill:#e9e9e9"></rect>
        <rect x="309.32" y="131.73" width="106.73" height="119.17" style="fill:#f5f5f5"></rect>
        <polygon points="339.48 131.73 309.32 244.7 309.32 183.54 323.12 131.73 339.48 131.73"
            style="fill:#fff"></polygon>
        <polygon points="352.96 131.73 321.15 250.89 315.15 250.89 346.96 131.73 352.96 131.73"
            style="fill:#fff"></polygon>
        <polygon points="416.05 164.22 416.05 225.39 409.29 250.89 392.93 250.89 416.05 164.22"
            style="fill:#fff"></polygon>
        <rect x="360.46" y="126.61" width="4.15" height="129.13" style="fill:#e9e9e9"></rect>
        <rect x="306.21" y="152.82" width="112.43" height="4.15" style="fill:#e9e9e9"></rect>
        <rect x="79.12" y="126.61" width="116.7" height="129.13" style="fill:#e9e9e9"></rect>
        <rect x="84.26" y="131.73" width="106.73" height="119.17" style="fill:#f5f5f5"></rect>
        <polygon points="114.42 131.73 84.26 244.7 84.26 183.54 98.06 131.73 114.42 131.73"
            style="fill:#fff"></polygon>
        <polygon points="127.9 131.73 96.09 250.89 90.09 250.89 121.9 131.73 127.9 131.73"
            style="fill:#fff"></polygon>
        <polygon points="190.99 164.22 190.99 225.39 184.23 250.89 167.87 250.89 190.99 164.22"
            style="fill:#fff"></polygon>
        <rect x="135.4" y="126.61" width="4.15" height="129.13" style="fill:#e9e9e9"></rect>
        <rect x="81.15" y="152.82" width="112.43" height="4.15" style="fill:#e9e9e9"></rect>
        <circle cx="250" cy="97.59" r="19.29" transform="translate(-12.4 41.31) rotate(-9.22)"
            style="fill:#e0e0e0"></circle>
        <circle cx="250" cy="97.59" r="16.4" transform="translate(-12.4 41.31) rotate(-9.22)"
            style="fill:#f0f0f0"></circle>
        <polyline points="250.77 86.34 250.77 97.81 258.37 93.51" style="fill:#f0f0f0"></polyline>
        <path
            d="M250.77,98.62a.77.77,0,0,1-.41-.11.8.8,0,0,1-.4-.7V86.34a.82.82,0,1,1,1.63,0V96.4L258,92.79a.82.82,0,0,1,.81,1.43l-7.6,4.3A.86.86,0,0,1,250.77,98.62Z"
            style="fill:#e0e0e0"></path>
        <path
            d="M247.87,346.61c0-.39-1.33-39-7.61-45.1-6.1-5.94-13.11-.23-13.41,0l-.63-.75c.08-.07,8-6.53,14.73,0,6.56,6.38,7.85,44.17,7.9,45.78Z"
            style="fill:#e0e0e0"></path>
        <path
            d="M248.4,354.2c0-.46-4.29-46.35,12.47-65.59l.74.65c-16.48,18.91-12.27,64.39-12.23,64.84Z"
            style="fill:#e0e0e0"></path>
        <path
            d="M247.78,349.34l-1-.06c0-.52,3.28-52.17-9-63.48l.67-.72C251.09,296.7,247.93,347.2,247.78,349.34Z"
            style="fill:#e0e0e0"></path>
        <path
            d="M249.38,349.32h-1c0-1.42.41-34.89,9.91-40.34a6.74,6.74,0,0,1,6.15-.6c5.75,2.38,8.6,12.61,8.72,13l-.95.26c0-.1-2.84-10.2-8.14-12.39a5.78,5.78,0,0,0-5.29.55C249.78,315,249.39,349,249.38,349.32Z"
            style="fill:#e0e0e0"></path>
        <path
            d="M245.68,349.34l-1-.06c0-.26,1.44-26.44-5.63-35.67-1.71-2.23-3.57-3.3-5.53-3.16-4.63.33-8.52,7.1-8.55,7.17l-.86-.49c.17-.29,4.18-7.3,9.34-7.66,2.3-.16,4.45,1,6.38,3.55C247.14,322.53,245.75,348.25,245.68,349.34Z"
            style="fill:#e0e0e0"></path>
        <path d="M247.23,352.9c-.19-2.54-4.62-62.32,3.17-72.85l.79.58c-7.57,10.24-3,71.58-3,72.2Z"
            style="fill:#e0e0e0"></path>
        <path
            d="M266.58,314.43s-4.67,1.72-3.28,5.79S279.46,331,279.46,331s6.19-5.67.51-14.9S266.71,311.52,266.58,314.43Z"
            style="fill:#ebebeb"></path>
        <path
            d="M246.27,306.69s5-.21,5.26,4.08-10.78,16.15-10.78,16.15-7.89-2.85-6.2-13.55S245,304.05,246.27,306.69Z"
            style="fill:#ebebeb"></path>
        <path
            d="M242.06,286.16s3.31-.35,3.05-2.37-12.9-7.22-20.35,1.19c0,0,4.77,8.19,11.67,8.3S242.06,286.16,242.06,286.16Z"
            style="fill:#ebebeb"></path>
        <path
            d="M248.24,281.26s-3,1.45-3.85-.41,7.13-12.94,17.9-9.75c0,0,.28,9.48-5.51,13.22S248.24,281.26,248.24,281.26Z"
            style="fill:#ebebeb"></path>
        <path
            d="M232.53,312.8s2.29-1.85-.18-2.75-14.59-.65-14.72,11.36c0,0,14.12,2.35,15.87-2.23S232.53,312.8,232.53,312.8Z"
            style="fill:#ebebeb"></path>
        <path
            d="M261.32,285.86s-2.28-1.84.19-2.75,14.59-.64,14.72,11.37c0,0-14.12,2.34-15.87-2.23S261.32,285.86,261.32,285.86Z"
            style="fill:#ebebeb"></path>
        <path
            d="M253.86,295.54s-.2-2.25,1.61-1.37,8.14,7.7,1.59,14.17c0,0-8.82-6.53-7.23-9.93S253.86,295.54,253.86,295.54Z"
            style="fill:#ebebeb"></path>
        <path
            d="M230.49,298.74s1.36-1.79-.64-2-11,2.18-8.89,11.15c0,0,10.94-.83,11.41-4.55S230.49,298.74,230.49,298.74Z"
            style="fill:#ebebeb"></path>
        <polygon points="267.45 382.6 229.91 382.6 225.86 341.49 271.51 341.49 267.45 382.6"
            style="fill:#f0f0f0"></polygon>
        <rect x="223.85" y="336.96" width="49.66" height="9.07" style="fill:#e6e6e6"></rect>
    </g>
    <g id="freepik--Shadow--inject-2">
        <ellipse id="freepik--path--inject-2" cx="250" cy="416.24" rx="193.89" ry="11.32"
            style="fill:#f5f5f5"></ellipse>
    </g>
    <g id="freepik--speech-bubble-3--inject-2">
        <path
            d="M326,176.18h27a9.27,9.27,0,0,1,9.27,9.27v11.19A9.26,9.26,0,0,1,353,205.9h-4.54l-.11,9.79-6.13-9.79H326a9.26,9.26,0,0,1-9.26-9.26V185.45A9.27,9.27,0,0,1,326,176.18Z"
            style="fill:#60D2CE"></path>
        <path d="M350,190.4a1.88,1.88,0,1,0,1.88-1.87A1.88,1.88,0,0,0,350,190.4Z"
            style="fill:#fff"></path>
        <circle cx="343.61" cy="190.4" r="1.87" style="fill:#fff"></circle>
        <path d="M333.48,190.4a1.88,1.88,0,1,0,1.88-1.87A1.88,1.88,0,0,0,333.48,190.4Z"
            style="fill:#fff"></path>
        <circle cx="327.11" cy="190.4" r="1.87" style="fill:#fff"></circle>
    </g>
    <g id="freepik--character-3--inject-2">
        <polygon points="401.84 402.69 403.02 417.39 385.08 405.12 401.84 402.69"
            style="fill:#263238"></polygon>
        <polygon points="401.84 402.69 403.02 417.39 385.08 405.12 401.84 402.69"
            style="fill:#fff;opacity:0.7000000000000001"></polygon>
        <polygon points="395.41 403.62 403.02 417.39 385.08 405.12 395.41 403.62"
            style="fill:#fff;opacity:0.5"></polygon>
        <rect x="298.8" y="338.1" width="121.9" height="68.47" rx="17.11"
            transform="translate(719.49 744.68) rotate(180)" style="fill:#263238"></rect>
        <rect x="298.8" y="338.1" width="121.9" height="68.47" rx="17.11"
            transform="translate(719.49 744.68) rotate(180)"
            style="fill:#fff;opacity:0.7000000000000001"></rect>
        <rect x="298.8" y="338.1" width="112.49" height="68.47" rx="17.11"
            transform="translate(710.09 744.68) rotate(180)" style="fill:#fff;opacity:0.5"></rect>
        <circle cx="365.77" cy="372.34" r="4.63" style="opacity:0.2;isolation:isolate"></circle>
        <circle cx="345.88" cy="372.34" r="4.63" style="opacity:0.2;isolation:isolate"></circle>
        <path d="M321.35,372.34a4.63,4.63,0,1,0,4.63-4.63A4.63,4.63,0,0,0,321.35,372.34Z"
            style="opacity:0.2;isolation:isolate"></path>
        <path d="M306.63,296.05l-7.27-1.68,1.8,8.08s7.16-.25,7.58-3.66Z"
            style="fill:#ffb573"></path>
        <polygon points="292.35 296.71 296.26 303.12 301.16 302.45 299.36 294.38 292.35 296.71"
            style="fill:#ffb573"></polygon>
        <path
            d="M354.45,270.85c-2.38,4.32-4.89,8.44-7.69,12.51-1.39,2-2.86,4-4.48,6.05a38.13,38.13,0,0,1-2.69,3,20,20,0,0,1-1.74,1.58,12.52,12.52,0,0,1-2.4,1.47,26,26,0,0,1-4,1.41c-1.25.35-2.48.64-3.7.91-2.44.52-4.86.94-7.27,1.3-4.83.73-9.64,1.19-14.51,1.46a2.45,2.45,0,0,1-.78-4.81h0L319,291.94c2.27-.65,4.52-1.3,6.7-2,1.08-.35,2.16-.72,3.18-1.11a24.57,24.57,0,0,0,2.69-1.2c.64-.25,2.1-2.14,3.36-3.88s2.52-3.74,3.76-5.7c2.44-3.93,4.88-8,7.24-12l0,0a4.92,4.92,0,0,1,8.54,4.88Z"
            style="fill:#e9b376"></path>
        <path
            d="M350.55,262.26c-9.74,1.67-17.66,22.7-17.66,22.7l-6.36,3,4.19,10.78s7.7-.22,12.55-3.09,15.22-22.73,15.22-22.73Z"
            style="fill:#60D2CE"></path>
        <path
            d="M358.49,272.93a181.9,181.9,0,0,1-10.39,17.41c-1.81,2.53-3.52,4.54-4.83,5.32l-.14.08c-4.85,2.79-12.41,3-12.41,3L326.53,288l6.36-3s7.92-21,17.66-22.7Z"
            style="opacity:0.2"></path>
        <polygon points="329.12 299.29 323.99 288.53 327.2 287.18 333.04 299.12 329.12 299.29"
            style="fill:#60D2CE"></polygon>
        <path
            d="M348.1,290.34c-1.81,2.53-3.52,4.54-4.83,5.32l-.14.08A33.08,33.08,0,0,1,344.87,280,35.8,35.8,0,0,1,348.1,290.34Z"
            style="opacity:0.2"></path>
        <path
            d="M350.94,312.6c8.12-.81,18.69-1.46,32.44-1.77,0,0,10.25,24.14-1.91,31.35-3.67,2.18-9.73,3.05-16.41,3.19a13.81,13.81,0,0,1-14.12-13.78Z"
            style="fill:#263238"></path>
        <path
            d="M377.49,332.48v11.35c-10.1,2.91-31.09,1.8-43.56.78A10.82,10.82,0,0,1,324,333.83v-9.31a7.4,7.4,0,0,1,4.8-6.93c6-2.27,17-5.66,28.56-5.49A20.41,20.41,0,0,1,377.49,332.48Z"
            style="fill:#263238"></path>
        <path
            d="M325.06,365.29c3.67,9.93,7.92,22.37,12.46,38.07l.24.86.27.91,4.68-1.14,1.76-.44s-.06-.69-.21-1.92c0-.26-.06-.53-.09-.83h0c-1.26-11-6.12-51.15-10.94-59.49a33.29,33.29,0,0,0,9.6.31c3-.5,6.6-21.15,6.6-21.15A63.67,63.67,0,0,0,334,318.27h-.11s-15.2,3.58-18.12,7.88C312.19,331.42,315.51,339.5,325.06,365.29Z"
            style="fill:#ffb573"></path>
        <path
            d="M331.12,417.39l11-4.84,3.47-3.87,1.07,1.46,1.31-.58c.62-4.87-1.75-7.14-3-8.18-.09-.08-.22-.16-.37-.28l-.15-.11-.05,0-.17-.13,0,0h0l-.1-.06-6,2.66s-.1.32-.29.83c-.6,1.7-2.09,5.56-3.73,7.62l-.21.26a5.85,5.85,0,0,1-.61.61C328.59,416.41,331.12,417.39,331.12,417.39Z"
            style="fill:#60D2CE"></path>
        <path
            d="M333.82,412.1c1.71.67,4.14-1,6-3.25a33.23,33.23,0,0,0,2.91-4.86,10.26,10.26,0,0,1,1.55-2.36c.25-.23.49-.33.7-.23v0c-.09-.08-.22-.16-.37-.28l-.15-.11-.05,0-.17-.13,0,0h0l-.1-.06c-.63-.47-1.33-1-1.33-1l-4.84,2.14s-.14.57-.38,1.44c-.64,2.24-2,6.5-3.49,8.48Z"
            style="fill:#ffb573"></path>
        <path
            d="M325.06,365.29c3.67,9.93,7.92,22.37,12.46,38.07-.64,2.24-2,6.5-3.49,8.48l-.21.26a5.85,5.85,0,0,1-.61.61c-4.62,3.7-2.09,4.68-2.09,4.68l11-4.84,3.47-3.87,1.07,1.46,1.31-.58c.62-4.87-1.75-7.14-3-8.18-.09-.08-.22-.16-.37-.28l-.15-.11-.05,0-.17-.13,0,0h0c-1.26-11-6.12-51.15-10.94-59.49a33.29,33.29,0,0,0,9.6.31c3-.5,6.6-21.15,6.6-21.15A63.67,63.67,0,0,0,334,318.27h-.11s1.84.18,4.34,3.32c0,0-10.21,1.9-13,7.31C324.16,331.08,324.39,347,325.06,365.29Z"
            style="opacity:0.1;isolation:isolate"></path>
        <path
            d="M349.43,320.46s-17.48,2.74-20.4,7c-5,7.39,4,21.91,20.58,79.83l6.45-1.58s-3.72-52.56-9.3-62.25c0,0,7.46,1,11.59.31C363.67,342.91,367,325.17,349.43,320.46Z"
            style="fill:#ffb573"></path>
        <path
            d="M357.11,417h-1.43l-.39-1.76-4.74,2.13h-12s-1.91-1.91,3.8-3.44a4.31,4.31,0,0,0,.81-.31c3.05-1.43,7.38-6.25,7.38-6.25h6.58a8.37,8.37,0,0,1,.54.95C358.39,409.78,359.63,412.82,357.11,417Z"
            style="fill:#60D2CE"></path>
        <path
            d="M357.67,408.34v0c-.87-1-4.82,3.28-7.72,4.73-2.58,1.29-5.49,1.86-6.78.55C346.22,412.21,351,406,351,406h5.29S357.36,407.72,357.67,408.34Z"
            style="fill:#ffb573"></path>
        <path
            d="M370.13,226.29c5.42,10,5.15,22.75,3.29,25.43s-29.06,1.21-29.06,1.21,2.64-2.9,2.92-19S370.13,226.29,370.13,226.29Z"
            style="fill:#263238"></path>
        <path
            d="M348,242.16c-2.69-4.18-5.69-15.64,4.49-19.69,12.71-5.06,18.88,2.91,20.37,11S370,248,361.48,247.76,349.86,245.05,348,242.16Z"
            style="fill:#263238"></path>
        <path
            d="M364.37,244.27c-.57,4.88-.85,13.71,2.67,16.38,0,0-4.54,0-13.11,7.24-3.31-3.51-1.47-5.06-1.47-5.06,5.14-2.05,4.71-5.95,3.53-9.5Z"
            style="fill:#ebb376"></path>
        <path
            d="M361,248l-5,5.36a14.46,14.46,0,0,1,.65,2.55c2-.6,4.55-3.22,4.61-5.37A6.9,6.9,0,0,0,361,248Z"
            style="opacity:0.2"></path>
        <path
            d="M367.71,235.16c-.58,7.77-.66,11.07-4.63,15-6,5.93-15.4,3.52-17.16-4.26-1.58-7-.38-18.54,7.27-21.54A10.64,10.64,0,0,1,367.71,235.16Z"
            style="fill:#ffb573"></path>
        <path
            d="M361.76,227.32c-2.39,2.51,1.77,11.43,5.51,13.22C375,238.72,368.89,219.84,361.76,227.32Z"
            style="fill:#263238"></path>
        <path
            d="M352.89,222.9c-3,1-6.11,6.14-6.64,8.11,4.22.69,15.58-3.26,15.58-3.26s7.58,2.1,3.74-1.75S352.89,222.9,352.89,222.9Z"
            style="fill:#263238"></path>
        <path
            d="M348.2,238.22c0,.63-.35,1.14-.77,1.13s-.74-.52-.73-1.15.35-1.15.76-1.14S348.2,237.58,348.2,238.22Z"
            style="fill:#263238"></path>
        <path d="M347.64,237.1l-1.51-.46S346.89,237.84,347.64,237.1Z" style="fill:#263238"></path>
        <path
            d="M369.72,242.31a5.65,5.65,0,0,1-3,3.14c-1.84.8-3-.78-2.73-2.65.25-1.68,1.52-4.12,3.46-4.12A2.55,2.55,0,0,1,369.72,242.31Z"
            style="fill:#ffb573"></path>
        <path
            d="M358.17,235.64a.37.37,0,0,1-.39-.2c-.75-1.55-2.94-1.91-3-1.92a.37.37,0,0,1-.31-.42.39.39,0,0,1,.43-.31c.1,0,2.59.43,3.51,2.32a.37.37,0,0,1-.17.5A.2.2,0,0,1,358.17,235.64Z"
            style="fill:#263238"></path>
        <path
            d="M346,233.64a.37.37,0,0,1-.28-.66,3.73,3.73,0,0,1,3.31-.75.39.39,0,0,1,.24.47.38.38,0,0,1-.47.24h0a3,3,0,0,0-2.62.62A.3.3,0,0,1,346,233.64Z"
            style="fill:#263238"></path>
        <path
            d="M355.35,238.31c0,.63-.35,1.14-.76,1.13s-.74-.52-.74-1.15.35-1.15.77-1.14S355.36,237.67,355.35,238.31Z"
            style="fill:#263238"></path>
        <path d="M354.8,237.19l-1.52-.46S354.05,237.93,354.8,237.19Z" style="fill:#263238"></path>
        <path
            d="M351.68,246a21.54,21.54,0,0,1,1.8,2.6l.52-.2c2.35-1,3.13-2.16,3.28-3.22a3.21,3.21,0,0,0-.19-1.53,2.88,2.88,0,0,0-.39-.79,12,12,0,0,1-4.23,2.8C352,245.85,351.68,246,351.68,246Z"
            style="fill:#263238"></path>
        <path
            d="M352.47,245.63l.55.76c2.22-.9,3.65-1.82,4.07-2.77a2.88,2.88,0,0,0-.39-.79A12,12,0,0,1,352.47,245.63Z"
            style="fill:#fff"></path>
        <path
            d="M354,248.37c2.35-1,3.13-2.16,3.28-3.22a8.07,8.07,0,0,0-2.4,1.57A3,3,0,0,0,354,248.37Z"
            style="fill:#de5753"></path>
        <path
            d="M353.9,241.9a3.28,3.28,0,1,1,2.87-3.25A3.08,3.08,0,0,1,353.9,241.9Zm0-6a2.79,2.79,0,1,0,2.38,2.76A2.6,2.6,0,0,0,353.9,235.89Z"
            style="fill:#263238"></path>
        <path
            d="M346.89,241.9a3.28,3.28,0,1,1,2.87-3.25A3.09,3.09,0,0,1,346.89,241.9Zm0-6a2.79,2.79,0,1,0,2.38,2.76A2.6,2.6,0,0,0,346.89,235.89Z"
            style="fill:#263238"></path>
        <path d="M350.32,238.14a16.91,16.91,0,0,1-2.31,4,2.72,2.72,0,0,0,2.25.45Z"
            style="fill:#ed893e"></path>
        <path d="M351.14,238.86s-1-.61-1.44-.05l-.38-.31c.72-.89,2-.09,2.08-.06Z"
            style="fill:#263238"></path>
        <rect x="356.52" y="238.41" width="9.43" height="0.49" style="fill:#263238"></rect>
        <path
            d="M385.21,310.83c-1.57-2.07-5.21-7-5.67-12.25v0c0-.34-.05-.67-.05-1-.08-2.22-.07-4.85.08-8,0-.49.05-1,.08-1.53.08-1.66.21-3.44.37-5.38.29-3.47.72-7.44,1.29-11.95.13-1.05.27-2.11.41-3.21a7.57,7.57,0,0,0-7.81-8.82c-1.28.05-2.65.13-4,.27a102.56,102.56,0,0,0-14.59,2.1c-1.57.36-3.18.81-4.73,1.25-5.55,1.6-8.11,8.7-8.18,14.42-.07,5.34,3.67,16.22,6.23,25.77.38,5.49-2.62,8.47-1.71,10.38s27.4-3.28,38.32,3.23C385.21,316.06,386.88,313,385.21,310.83Z"
            style="fill:#60D2CE"></path>
        <path
            d="M385.21,310.83c-1.57-2.07-5.21-7-5.67-12.25v0c0-.34-.05-.67-.05-1-.08-2.22-.07-4.85.08-8,0-.49.05-1,.08-1.53.08-1.66.21-3.44.37-5.38.29-3.47.72-7.44,1.29-11.95.13-1.05.27-2.11.41-3.21a7.57,7.57,0,0,0-7.81-8.82c-1.28.05-2.65.13-4,.27a102.56,102.56,0,0,0-14.59,2.1c-1.57.36-3.18.81-4.73,1.25-5.55,1.6-8.11,8.7-8.18,14.42-.07,5.34,3.67,16.22,6.23,25.77.38,5.49-2.62,8.47-1.71,10.38s27.4-3.28,38.32,3.23C385.21,316.06,386.88,313,385.21,310.83Z"
            style="opacity:0.2"></path>
        <path d="M369.22,259l-1.48-3.16-14.46,2.2-.82,4.75S357.34,267,369.22,259Z"
            style="fill:#60D2CE"></path>
        <path
            d="M352.47,289.53s4,19.9,27.1,0c0-.49.05-1,.08-1.53.08-1.66.21-3.44.37-5.38l-12-16a32.84,32.84,0,0,0-7.22,13.27l-1.93-.38Z"
            style="opacity:0.2"></path>
        <path d="M342.45,265l-2.94-7.83,7.16-1.45s2.83,5.18-.31,8.91Z" style="fill:#ffb573"></path>
        <polygon points="340.27 251.27 345.87 251.47 346.67 255.72 339.51 257.18 340.27 251.27"
            style="fill:#ffb573"></polygon>
        <path
            d="M380.86,266.25a85.78,85.78,0,0,1-6.06,14.69A37.52,37.52,0,0,1,370,288.1a13.8,13.8,0,0,1-4.42,3.49,8.91,8.91,0,0,1-1.85.64,8.14,8.14,0,0,1-2.19.15,8.81,8.81,0,0,1-3.49-1,14.52,14.52,0,0,1-4.07-3.3,31,31,0,0,1-2.65-3.46,56.59,56.59,0,0,1-3.88-7.07A95,95,0,0,1,342.08,263a2.44,2.44,0,0,1,4.52-1.78l0,.06c2.24,4.36,4.67,8.75,7.21,12.85a60.88,60.88,0,0,0,4,5.78,23.91,23.91,0,0,0,2.15,2.36,6.74,6.74,0,0,0,1.86,1.31c.19.07.26,0,.12,0a1.07,1.07,0,0,0-.31,0c-.08,0-.11,0-.09,0a9.35,9.35,0,0,0,1.29-1.38,34.61,34.61,0,0,0,3.25-5.6c1-2.09,1.94-4.29,2.82-6.53s1.72-4.56,2.5-6.73l.05-.16a4.92,4.92,0,0,1,9.32,3.14Z"
            style="fill:#e9b376"></path>
        <path
            d="M376.17,258.63c-7.84-.45-14.92,22-14.92,22l-2.76-1.35-6,10.21s3.54,7.29,10.15,6.8,16-8.42,19.18-20.58S382.6,259,376.17,258.63Z"
            style="fill:#60D2CE"></path>
        <path
            d="M376.17,258.63c-7.84-.45-14.92,22-14.92,22l-2.76-1.35-6,10.21s3.54,7.29,10.15,6.8,16-8.42,19.18-20.58S382.6,259,376.17,258.63Z"
            style="opacity:0.2"></path>
        <polygon points="350.75 287.97 357.13 277.89 359.98 279.89 352.98 291.19 350.75 287.97"
            style="fill:#60D2CE"></polygon>
    </g>
    <g id="freepik--speech-bubble-2--inject-2">
        <path
            d="M237.61,122.66h-27a9.27,9.27,0,0,0-9.26,9.27v11.18a9.27,9.27,0,0,0,9.26,9.27h11.54l3.11,9.79,3.13-9.79h9.18a9.26,9.26,0,0,0,9.26-9.27V131.93A9.26,9.26,0,0,0,237.61,122.66Z"
            style="fill:#263238"></path>
        <path d="M213.63,136.88a1.88,1.88,0,1,1-1.87-1.87A1.87,1.87,0,0,1,213.63,136.88Z"
            style="fill:#fff"></path>
        <circle cx="220.01" cy="136.88" r="1.87" style="fill:#fff"></circle>
        <path d="M230.13,136.88a1.88,1.88,0,1,1-1.88-1.87A1.88,1.88,0,0,1,230.13,136.88Z"
            style="fill:#fff"></path>
        <circle cx="236.5" cy="136.88" r="1.87" style="fill:#fff"></circle>
        <g style="opacity:0.30000000000000004">
            <path
                d="M237.61,122.66h-27a9.27,9.27,0,0,0-9.26,9.27v11.18a9.27,9.27,0,0,0,9.26,9.27h11.54l3.11,9.79,3.13-9.79h9.18a9.26,9.26,0,0,0,9.26-9.27V131.93A9.26,9.26,0,0,0,237.61,122.66Z"
                style="fill:#fff"></path>
        </g>
    </g>
    <g id="freepik--character-2--inject-2">
        <path
            d="M255.35,209.26c1.63,1.67,3.37,3.39,5.09,5s3.45,3.31,5.22,4.87a67.51,67.51,0,0,0,5.31,4.34c.44.31.87.6,1.27.84a9.23,9.23,0,0,0,1,.54c.08,0,.15.06,0,.05H273a2,2,0,0,0-.33.05,2.23,2.23,0,0,0-.51.15,3.41,3.41,0,0,0-.62.33l-.3.25-.13.13-.16.21a.56.56,0,0,0-.11.21s0-.05.08-.16a12.41,12.41,0,0,0,.44-2.74c.08-1.08.11-2.23.1-3.39,0-2.33-.13-4.72-.31-7.12s-.41-4.8-.68-7.21-.52-4.83-.84-7.21v0a2.47,2.47,0,0,1,4.85-.92c1.19,4.84,2.2,9.66,3,14.6.41,2.47.77,5,1,7.52.13,1.28.22,2.58.24,3.94a19.13,19.13,0,0,1-.39,4.55,9.12,9.12,0,0,1-.54,1.56,7.39,7.39,0,0,1-.58,1,6.39,6.39,0,0,1-.46.56,4,4,0,0,1-.29.29q-.24.21-.48.39a5.1,5.1,0,0,1-2,.82,5.63,5.63,0,0,1-.79.09,4.8,4.8,0,0,1-.66,0,7.89,7.89,0,0,1-1.82-.34,15.13,15.13,0,0,1-2.36-1c-.68-.33-1.3-.68-1.89-1a71.13,71.13,0,0,1-6.47-4.42c-4.08-3.06-7.85-6.23-11.63-9.63a5,5,0,1,1,6.68-7.43l.23.23Z"
            style="fill:#e9c0bb"></path>
        <path
            d="M263.47,215.75l-6.87,10.48-.1-.08-7.7-6-2.57-2a13,13,0,0,1-.61-6,14.92,14.92,0,0,1,2.38-5.53C253.87,206.74,257.08,209.13,263.47,215.75Z"
            style="fill:#60D2CE"></path>
        <path
            d="M256.5,226.15l-7.7-6c.27-1.22,2.29-3.92,3.08-5.15C251.88,215,256.5,218.06,256.5,226.15Z"
            style="opacity:0.2"></path>
        <path
            d="M233.29,171.19S220,168,215.59,173.85c-9.6,12.74,2.73,56.49,0,65.5,0,0,15.67,3.18,30.64-.12a120.37,120.37,0,0,0,2-39.49C245.7,177.55,241.47,169.42,233.29,171.19Z"
            style="fill:#263238"></path>
        <path
            d="M256,250.71l-31.79,3a157,157,0,0,0-5.35-23.27c-.8-2.69-1.68-5.47-2.65-8.29-.41-1.22-.85-2.44-1.29-3.67-1.68-4.62.66-10,.66-10s6.26-.4,6.89-.49,1.4-.2,2.11-.29a101.72,101.72,0,0,1,14.56-1c1.21,0,2.45.08,3.67.13.39,0,4.8-.1,5.18-.08,0,0,6.37,6.75,7,12.38a100.46,100.46,0,0,1,1,13.07C256.13,237.24,256,250.71,256,250.71Z"
            style="fill:#60D2CE"></path>
        <path
            d="M240.09,215.62C230,216.93,223.48,208,223.48,208a5.06,5.06,0,0,0,2.82-1.65c1.45-1.72,1.54-4.35,1.26-6.53,0-.11,0-.22-.06-.33a41.48,41.48,0,0,0-1.16-5.39c-.3-1-.62-2-.91-2.86l4,2.8,6,4.15a4.82,4.82,0,0,0,0,.77,11.67,11.67,0,0,0,.29,2.07c.05.25.11.5.16.75a6.68,6.68,0,0,0,1.24,2.79,6.15,6.15,0,0,0,5,2.15C246,210.6,243.56,215.16,240.09,215.62Z"
            style="fill:#ebc0bb"></path>
        <path
            d="M235.75,201a11.69,11.69,0,0,1-9.45,5.32c1.45-1.72,1.54-4.35,1.26-6.53,0-.11,0-.22-.06-.33a41.48,41.48,0,0,0-1.16-5.39c-.3-1-.62-2-.91-2.86l4,2.8,6,4.15a4.82,4.82,0,0,0,0,.77A11.67,11.67,0,0,0,235.75,201Z"
            style="opacity:0.2"></path>
        <path
            d="M235.47,182.15c1.75,7.24,2.64,10.27.26,15.18-3.57,7.4-12.59,8.4-16.41,1.92-3.43-5.83-5.71-16.7.18-22A9.55,9.55,0,0,1,235.47,182.15Z"
            style="fill:#ebc0bb"></path>
        <path
            d="M219.94,189.62c.17.6,0,1.2-.37,1.34s-.81-.24-1-.85,0-1.2.37-1.33S219.76,189,219.94,189.62Z"
            style="fill:#263238"></path>
        <path d="M219.12,188.75l-1.49.08S218.66,189.71,219.12,188.75Z" style="fill:#263238"></path>
        <path d="M222.67,190a18.28,18.28,0,0,1-.93,4.59,2.5,2.5,0,0,0,2.15-.34Z"
            style="fill:#d4827d"></path>
        <path
            d="M216,187a.34.34,0,0,1-.26-.05.36.36,0,0,1-.07-.51,3.79,3.79,0,0,1,2.91-1.74.32.32,0,0,1,.33.36.4.4,0,0,1-.38.37,3.06,3.06,0,0,0-2.29,1.41A.43.43,0,0,1,216,187Z"
            style="fill:#263238"></path>
        <path
            d="M224.11,184.05a.35.35,0,0,1-.21-.15.36.36,0,0,1,.15-.49,3.84,3.84,0,0,1,3.38-.34.34.34,0,0,1,.15.47.4.4,0,0,1-.5.18,3,3,0,0,0-2.68.29A.33.33,0,0,1,224.11,184.05Z"
            style="fill:#263238"></path>
        <path
            d="M227.3,187.2c.17.6,0,1.2-.36,1.33s-.82-.24-1-.84,0-1.2.36-1.34S227.13,186.6,227.3,187.2Z"
            style="fill:#263238"></path>
        <path d="M226.49,186.33l-1.5.08S226,187.28,226.49,186.33Z" style="fill:#263238"></path>
        <path
            d="M234,187.57s-5.5-3.1-6.45-11.22c0,0-9,0-11.85,8.12,0,0,.7-11.49,13.5-12.44S239,185.3,238,186.8,234,187.57,234,187.57Z"
            style="fill:#263238"></path>
        <path
            d="M239.54,187.15A6,6,0,0,1,237,191c-1.7,1.1-3.11-.47-3.11-2.55,0-1.87.88-4.7,2.82-4.95S239.93,185.18,239.54,187.15Z"
            style="fill:#ebc0bb"></path>
        <path
            d="M224,195.86a22.17,22.17,0,0,1,2.39,2.08c.16-.1.31-.21.46-.32,2-1.5,2.5-2.86,2.38-3.93a3.18,3.18,0,0,0-.56-1.44,3.22,3.22,0,0,0-.57-.67,12,12,0,0,1-3.41,3.76C224.28,195.67,224,195.86,224,195.86Z"
            style="fill:#263238"></path>
        <path
            d="M224.69,195.34l.72.6c1.92-1.41,3.09-2.67,3.26-3.69a3.22,3.22,0,0,0-.57-.67A12,12,0,0,1,224.69,195.34Z"
            style="fill:#fff"></path>
        <path
            d="M226.85,197.62c2-1.5,2.5-2.86,2.38-3.93a8.23,8.23,0,0,0-1.94,2.11A3,3,0,0,0,226.85,197.62Z"
            style="fill:#de5753"></path>
        <path d="M224.23,253.67,256,250.31s1.32,9.52,1.09,9.39-34,2.49-34,2.49Z"
            style="fill:#60D2CE"></path>
        <path d="M224.23,253.67,256,250.31s1.32,9.52,1.09,9.39-34,2.49-34,2.49Z"
            style="fill:#fff;opacity:0.6000000000000001"></path>
        <path
            d="M267.59,341.51c-2.68,5.89-5.36,12.23-7.92,18.56-3.37,8.36-6.52,16.71-9.18,24.18-1.9,5.34-4.39,12.07-5.68,16.13a14.46,14.46,0,0,1-8.54-3.24c.8-7.26,3-26.1,7.79-42.79,2.53-8.78,5.77-17.48,9.9-24.61-22.59-52.25-19.38-72.66-19.38-72.66l21.75-2.5s4.7,19.72,8.78,40h0c2.13,10.63,4.08,21.41,5.1,29.59v.08A32.05,32.05,0,0,1,267.59,341.51Z"
            style="fill:#60D2CE"></path>
        <path
            d="M247.6,314.17c-3.4-8.91-5.94-16.66-7.82-23.32,1-5.39,2.69-10.06,5.19-13C245,277.88,249.88,292.35,247.6,314.17Z"
            style="opacity:0.2"></path>
        <path
            d="M250.49,384.25c-1.9,5.34-4.39,12.07-5.68,16.13a14.46,14.46,0,0,1-8.54-3.24c.8-7.26,3-26.1,7.79-42.79C246.27,363.11,248.84,374.19,250.49,384.25Z"
            style="opacity:0.2"></path>
        <path
            d="M267.59,341.51c-2.68,5.89-5.36,12.23-7.92,18.56-3.37,8.36-6.52,16.71-9.18,24.18-1.9,5.34-4.39,12.07-5.68,16.13a14.46,14.46,0,0,1-8.54-3.24c.8-7.26,3-26.1,7.79-42.79,2.53-8.78,5.77-17.48,9.9-24.61-22.59-52.25-19.38-72.66-19.38-72.66l21.75-2.5s4.7,19.72,8.78,40h0c2.13,10.63,4.08,21.41,5.1,29.59v.08A32.05,32.05,0,0,1,267.59,341.51Z"
            style="fill:#fff;opacity:0.6000000000000001"></path>
        <path
            d="M245.9,404a9.72,9.72,0,0,1-1.89-2.91h0a.13.13,0,0,1,0-.06.28.28,0,0,1,0-.09h0a.05.05,0,0,1,0,0h0a.16.16,0,0,1,.07-.07c.08,0,1.79-1,2.9-.68a1.22,1.22,0,0,1,.77.69.75.75,0,0,1,0,.85c-.29.3-1,.26-1.71.1a3.26,3.26,0,0,1,1.23,1.3.87.87,0,0,1,0,.69c-.21.44-.5.53-.69.52A1,1,0,0,1,245.9,404Zm-1.25-2.55c.57,1.14,1.41,2.42,1.89,2.42,0,0,.17,0,.31-.29a.39.39,0,0,0,0-.35C246.63,402.56,245.46,401.84,244.65,401.41Zm2.49-.76a1.06,1.06,0,0,0-.28-.15,3.46,3.46,0,0,0-2.14.43c1.19.42,2.45.68,2.7.42.08-.08,0-.28,0-.39A.83.83,0,0,0,247.14,400.65Z"
            style="fill:#60D2CE"></path>
        <path
            d="M237.81,394.65c.43-.49,6.18,5,6.18,5s.53,7,3.44,10.89-1,4.39-5,1l-10-8.49C229.47,400.61,233.35,399.68,237.81,394.65Z"
            style="fill:#60D2CE"></path>
        <path
            d="M237.81,394.65c.43-.49,6.18,5,6.18,5s.53,7,3.44,10.89-1,4.39-5,1l-10-8.49C229.47,400.61,233.35,399.68,237.81,394.65Z"
            style="fill:#fff;opacity:0.30000000000000004"></path>
        <path
            d="M237.81,394.65c.43-.49,6.18,5,6.18,5s.53,7,3.44,10.89-1,4.39-5,1l-10-8.49C229.47,400.61,233.35,399.68,237.81,394.65Z"
            style="opacity:0.2"></path>
        <path
            d="M243.94,409.33a9.75,9.75,0,0,1-3.31-1.05h0l-.05,0a.22.22,0,0,1,0-.08h0s0,0,0,0h0a.31.31,0,0,1,0-.1c0-.09.73-1.93,1.81-2.37a1.28,1.28,0,0,1,1,0c.36.18.53.41.52.68,0,.42-.61.83-1.26,1.17a3.18,3.18,0,0,1,1.78.22.8.8,0,0,1,.42.54.76.76,0,0,1-.2.85A1.08,1.08,0,0,1,243.94,409.33Zm-2.58-1.17c1.17.51,2.62,1,3,.66,0,0,.13-.11.06-.42a.45.45,0,0,0-.23-.28A5.14,5.14,0,0,0,241.36,408.16ZM242.8,406a.85.85,0,0,0-.31.06,3.51,3.51,0,0,0-1.39,1.7c1.19-.44,2.33-1,2.36-1.4,0-.11-.18-.22-.28-.27A.88.88,0,0,0,242.8,406Z"
            style="fill:#60D2CE"></path>
        <path
            d="M231.77,407.28c0-.64,8,0,8,0s4.84,5,9.58,6.22,2.06,4-3.26,3.93l-13.16-.16C229.14,417.19,231.54,414,231.77,407.28Z"
            style="fill:#60D2CE"></path>
        <path
            d="M231.77,407.28c0-.64,8,0,8,0s4.84,5,9.58,6.22,2.06,4-3.26,3.93l-13.16-.16C229.14,417.19,231.54,414,231.77,407.28Z"
            style="fill:#fff;opacity:0.30000000000000004"></path>
        <path
            d="M247.46,252.78s-4.48,49.48-7.23,73.31c-2.87,25-1.84,65-.26,81.22-1.36.86-6.4,2-9.18,1.28,0,0-14.9-49.83-7.4-79.39-10-57.28.77-71.81.77-71.81Z"
            style="fill:#60D2CE"></path>
        <g style="opacity:0.6000000000000001">
            <path
                d="M247.46,252.78s-4.48,49.48-7.23,73.31c-2.87,25-1.84,65-.26,81.22-1.36.86-6.4,2-9.18,1.28,0,0-14.9-49.83-7.4-79.39-10-57.28.77-71.81.77-71.81Z"
                style="fill:#fff"></path>
        </g>
        <polygon
            points="224.53 254.18 255.95 251.24 256.06 254.22 224.36 257.13 224.53 254.18"></polygon>
        <path
            d="M242.32,256a.9.9,0,0,1-.91-.81l-.2-1.74a.92.92,0,0,1,.8-1l3.44-.4a.91.91,0,0,1,.7.22.9.9,0,0,1,.31.65l.07,1.85a.9.9,0,0,1-.82.94l-3.31.3Zm-.3-.88a.31.31,0,0,0,.33.26l3.3-.3a.3.3,0,0,0,.27-.31l-.07-1.84a.31.31,0,0,0-.11-.22.29.29,0,0,0-.22-.07l-3.44.41a.29.29,0,0,0-.26.32Z"
            style="fill:#fff"></path>
        <path d="M274.5,200.47l5.67-6.5-6.69-2.15s-5.31,5.83-2.89,7.83Z"
            style="fill:#ebc0bb"></path>
        <polygon points="278.68 187.05 272.85 189 273.2 195.2 280.17 193.97 278.68 187.05"
            style="fill:#ebc0bb"></polygon>
        <path
            d="M228.13,174.1a9.56,9.56,0,0,0-.51,7,6.81,6.81,0,0,1-1.41-4.36,8.93,8.93,0,0,0-1.41,4.64s-5.82.37-9.45,2.76C215.35,184.11,215.42,172,228.13,174.1Z"
            style="fill:#263238"></path>
        <path
            d="M218.87,230.4c-.8-2.69-1.68-5.47-2.65-8.29a9.62,9.62,0,0,1,4.27-2.09S221.39,226.92,218.87,230.4Z"
            style="opacity:0.2"></path>
        <path
            d="M221.22,218.32a113,113,0,0,1-6.27,13.6,55.37,55.37,0,0,1-4.18,6.6,23,23,0,0,1-3,3.27,12.12,12.12,0,0,1-2.2,1.58,8.52,8.52,0,0,1-1.48.65,10.72,10.72,0,0,1-1.41.35,16,16,0,0,1-4.63,0,33.17,33.17,0,0,1-3.94-.74,66.58,66.58,0,0,1-7.21-2.24,121.48,121.48,0,0,1-13.46-5.92,2.48,2.48,0,0,1,2-4.52l0,0c2.15.81,4.41,1.59,6.64,2.3s4.47,1.42,6.71,2a63.17,63.17,0,0,0,6.65,1.41,25.6,25.6,0,0,0,3.16.29,9.46,9.46,0,0,0,2.52-.21,1.69,1.69,0,0,0,.33-.12,1.1,1.1,0,0,0,.14-.11,4.45,4.45,0,0,0,.63-.6,15.19,15.19,0,0,0,1.66-2.23,47.75,47.75,0,0,0,3-5.8c.92-2.06,1.76-4.2,2.57-6.37s1.58-4.38,2.23-6.49l0-.05a5,5,0,0,1,9.54,2.95C221.31,218.09,221.26,218.21,221.22,218.32Z"
            style="fill:#e9c0bb"></path>
        <path d="M176.77,231.9l-5.25-6.85-3.43,6.13s4.65,6.36,7.09,4.39Z"
            style="fill:#ebc0bb"></path>
        <polygon points="164.44 225.13 165.19 231.24 171.34 232.12 171.52 225.05 164.44 225.13"
            style="fill:#ebc0bb"></polygon>
        <path
            d="M215.59,208.44c-5.21.94-9,12.43-9,12.43l11,7.86,5.44-7.94a7.26,7.26,0,0,0-.56-6.64C220.34,210.83,215.59,208.44,215.59,208.44Z"
            style="fill:#60D2CE"></path>
    </g>
    <g id="freepik--speech-bubble-1--inject-2">
        <path
            d="M143.46,180.59H116.51a9.27,9.27,0,0,0-9.27,9.27v11.19a9.27,9.27,0,0,0,9.27,9.27h4.54l.1,9.78,6.13-9.78h16.18a9.27,9.27,0,0,0,9.27-9.27V189.86A9.27,9.27,0,0,0,143.46,180.59Z"
            style="fill:#60D2CE"></path>
        <path d="M119.48,194.82a1.87,1.87,0,1,1-1.87-1.88A1.87,1.87,0,0,1,119.48,194.82Z"
            style="fill:#fff"></path>
        <path d="M127.73,194.82a1.87,1.87,0,1,1-1.87-1.88A1.87,1.87,0,0,1,127.73,194.82Z"
            style="fill:#fff"></path>
        <path d="M136,194.82a1.87,1.87,0,1,1-1.87-1.88A1.87,1.87,0,0,1,136,194.82Z"
            style="fill:#fff"></path>
        <path d="M144.23,194.82a1.87,1.87,0,1,1-1.87-1.88A1.87,1.87,0,0,1,144.23,194.82Z"
            style="fill:#fff"></path>
    </g>
    <g id="freepik--character-1--inject-2">
        <polygon points="98.64 402.69 97.46 417.39 115.4 405.12 98.64 402.69"
            style="fill:#263238"></polygon>
        <polygon points="98.64 402.69 97.46 417.39 115.4 405.12 98.64 402.69"
            style="fill:#fff;opacity:0.7000000000000001"></polygon>
        <polygon points="105.07 403.62 97.46 417.39 115.4 405.12 105.07 403.62"
            style="fill:#fff;opacity:0.5"></polygon>
        <rect x="79.78" y="338.1" width="121.9" height="68.47" rx="17.11"
            style="fill:#263238"></rect>
        <rect x="79.78" y="338.1" width="121.9" height="68.47" rx="17.11"
            style="fill:#fff;opacity:0.7000000000000001"></rect>
        <rect x="89.19" y="338.1" width="112.49" height="68.47" rx="17.11"
            style="fill:#fff;opacity:0.5"></rect>
        <circle cx="114.81" cy="372.34" r="4.63" style="opacity:0.2;isolation:isolate"></circle>
        <path d="M139.33,372.34a4.63,4.63,0,1,1-4.62-4.63A4.62,4.62,0,0,1,139.33,372.34Z"
            style="opacity:0.2;isolation:isolate"></path>
        <circle cx="154.61" cy="372.34" r="4.63" style="opacity:0.2;isolation:isolate"></circle>
        <circle cx="174.5" cy="372.34" r="4.63" style="opacity:0.2;isolation:isolate"></circle>
        <path
            d="M203.94,409.33a9.75,9.75,0,0,1-3.31-1.05h0l-.05,0a.22.22,0,0,1,0-.08h0s0,0,0,0h0a.31.31,0,0,1,0-.1c0-.09.72-1.93,1.81-2.37a1.28,1.28,0,0,1,1,0c.36.18.53.41.51.68,0,.42-.6.83-1.25,1.17a3.21,3.21,0,0,1,1.78.22.83.83,0,0,1,.42.54.78.78,0,0,1-.2.85A1.08,1.08,0,0,1,203.94,409.33Zm-2.58-1.17c1.16.51,2.62,1,3,.66,0,0,.13-.11,0-.42a.41.41,0,0,0-.22-.28A5.14,5.14,0,0,0,201.36,408.16ZM202.8,406a.91.91,0,0,0-.32.06,3.49,3.49,0,0,0-1.38,1.7c1.18-.44,2.33-1,2.35-1.4,0-.11-.17-.22-.28-.27A.84.84,0,0,0,202.8,406Z"
            style="fill:#60D2CE"></path>
        <path
            d="M191.77,407.28c0-.64,8,0,8,0s4.84,5,9.58,6.22,2,4-3.26,3.93l-13.16-.16C189.13,417.19,191.53,414,191.77,407.28Z"
            style="fill:#263238"></path>
        <path
            d="M139.06,309.31l.52,5.55s32.49,4.94,37.68,10,23.84,82.86,23.84,82.86-5.42,2.3-9.66,1.1c0,0-25.46-49.24-25.17-65.4,0,0-22.74.85-38.26.85s-17.37-35-17.37-35Z"
            style="fill:#60D2CE"></path>
        <path
            d="M164.66,343.5c-3.71.13-13.31.45-23.17.64l2-23.35s11.68,1.42,19,6.95C165.31,329.83,165.43,336.5,164.66,343.5Z"
            style="opacity:0.2;isolation:isolate"></path>
        <path
            d="M132.94,409.33a9.82,9.82,0,0,1-3.32-1.05h0l-.05,0a.2.2,0,0,1,0-.08h0a.06.06,0,0,1,0,0h0a.16.16,0,0,1,0-.1c0-.09.72-1.93,1.8-2.37a1.27,1.27,0,0,1,1,0c.36.18.54.41.52.68,0,.42-.6.83-1.25,1.17a3.21,3.21,0,0,1,1.78.22.87.87,0,0,1,.42.54.78.78,0,0,1-.21.85A1,1,0,0,1,132.94,409.33Zm-2.59-1.17c1.17.51,2.62,1,3,.66,0,0,.13-.11.06-.42a.42.42,0,0,0-.23-.28A5.14,5.14,0,0,0,130.35,408.16Zm1.44-2.18a.89.89,0,0,0-.31.06,3.51,3.51,0,0,0-1.39,1.7c1.19-.44,2.33-1,2.36-1.4,0-.11-.17-.22-.28-.27A.88.88,0,0,0,131.79,406Z"
            style="fill:#60D2CE"></path>
        <path
            d="M120.77,407.28c0-.64,8,0,8,0s4.83,5,9.58,6.22,2,4-3.27,3.93l-13.15-.16C118.13,417.19,120.53,414,120.77,407.28Z"
            style="fill:#263238"></path>
        <path
            d="M110.64,309.31s-10,14.87-4.58,27.09,32.83,6.7,32.83,6.7c-4.12,6.37-8.8,12-18.57,64.16a13.84,13.84,0,0,0,9.2.76s30.58-62.9,31.37-74.13-32.29-18.44-32.29-18.44Z"
            style="fill:#60D2CE"></path>
        <path
            d="M140.43,269.38c1.47,3.73,3.08,7.58,4.74,11.23.85,1.82,1.72,3.6,2.64,5.27l.71,1.2c.24.4.48.71.71,1.09a9.35,9.35,0,0,0,.69.91l.16.21.12.11a2.62,2.62,0,0,1,.22.25s0,0,0,0l-.07,0s-.13,0-.15,0-.16,0-.14,0,0,0,0,0h.08s.17,0,.28,0a7,7,0,0,0,2-.51,32.07,32.07,0,0,0,5-2.57c3.37-2.07,6.78-4.52,10-7l.07,0a2.3,2.3,0,0,1,3.17,3.29,66.54,66.54,0,0,1-9.22,9.4,33.35,33.35,0,0,1-5.82,4,15.41,15.41,0,0,1-4,1.45,8.4,8.4,0,0,1-1.3.16l-.71,0-.79-.06a7.46,7.46,0,0,1-1.67-.4,4.53,4.53,0,0,1-.85-.38l-.42-.23a1.67,1.67,0,0,1-.34-.22l-1-.77-.48-.4-.37-.38a18.27,18.27,0,0,1-1.36-1.5c-.38-.48-.8-1-1.13-1.47l-1-1.47c-1.25-2-2.34-3.9-3.35-5.87a104.87,104.87,0,0,1-5.17-12,4.62,4.62,0,0,1,8.64-3.26Z"
            style="fill:#b97863"></path>
        <path
            d="M136.45,265.11c8.4,3,8.4,13.64,14.44,24.41l-5,8.63s-9.89-7-13-19.35S136.45,265.11,136.45,265.11Z"
            style="fill:#60D2CE"></path>
        <path
            d="M150.89,289.52l-5,8.64a28.41,28.41,0,0,1-3-2.55,39.42,39.42,0,0,1-5.88-7.24,33.25,33.25,0,0,1-4.14-9.57c-3.1-12.39,3.58-13.68,3.58-13.68C144.86,268.08,144.86,278.75,150.89,289.52Z"
            style="fill:#fff;opacity:0.7000000000000001"></path>
        <path d="M150.89,288.32l1.69.79-3.08,10.73h-5.26S146.36,290.78,150.89,288.32Z"
            style="fill:#60D2CE"></path>
        <path d="M150.89,288.32l1.69.79-3.08,10.73h-5.26S146.36,290.78,150.89,288.32Z"
            style="fill:#fff;opacity:0.6000000000000001"></path>
        <path
            d="M142.88,295.61a39.42,39.42,0,0,1-5.88-7.24,39.19,39.19,0,0,1,.42-8.87S142.5,286.88,142.88,295.61Z"
            style="opacity:0.1"></path>
        <path
            d="M102.29,233.13c-.26-2.35,7.33-7.49,11.47-7.2s2.4,2.53,5.12,1.9,6.13-.55,7.36,1.71-1.7,6.11.89,6.75,6.17,3.27,3.94,6.54-9.76,9.41-18.48,10.78-12.51-9.55-12.09-13.5a2.43,2.43,0,0,0-2.79,2.8c.09,3.2,4.32,5,2.84,8s-2.82,4.37.08,6.21.24,5.86-1.87,5.8c0,0,1-.37.37-2s-3.88.27-6.24-3.74.79-5.11-.62-6.8-4-.51-4.76-4.32c-.59-2.77,3-5.86,3.76-8s-1.53-2.64-.28-6.48c.84-2.56,5-3.15,7.16-2.59A5.15,5.15,0,0,1,102.29,233.13Z"
            style="fill:#263238"></path>
        <path
            d="M129.7,278.8A101.25,101.25,0,0,0,109,264.36l2.08-.2a100.24,100.24,0,0,1,14.29-.49c1.19.07,2.4.17,3.59.27h0C131.92,270.72,129.7,278.8,129.7,278.8Z"
            style="fill:#fff;opacity:0.7000000000000001"></path>
        <path d="M109,310.2l31.2-2.1s.94,9.37.72,9.23-33.4,1.17-33.4,1.17Z"
            style="fill:#60D2CE"></path>
        <polygon points="109.28 310.71 140.16 309.01 140.16 311.94 109 313.59 109.28 310.71"
            style="fill:#263238"></polygon>
        <path
            d="M126.66,313.19a.89.89,0,0,1-.89-.83l-.14-1.71a.91.91,0,0,1,.83-1l3.38-.26a.91.91,0,0,1,.68.24.87.87,0,0,1,.28.65v1.81a.89.89,0,0,1-.84.89l-3.25.18Zm3.25-3.17h0l-3.39.27a.28.28,0,0,0-.26.31l.13,1.71a.31.31,0,0,0,.31.27l3.24-.17a.29.29,0,0,0,.28-.29v-1.81a.27.27,0,0,0-.09-.21A.32.32,0,0,0,129.91,310Z"
            style="fill:#fff"></path>
        <path
            d="M108.34,310.2a177,177,0,0,0-7.13-35.85,13.58,13.58,0,0,1-.46-7.71s7.63-2.21,8.25-2.28l2.08-.2a100.24,100.24,0,0,1,14.29-.49c1.19.07,2.4.17,3.59.27.39,0,7.11,1.13,7.49,1.17,0,0,3.57,5.79,3.94,11.33a96.69,96.69,0,0,1,.49,12.84c0,5-.42,19.25-.42,19.25-.91,2-12.24.37-12.24.37C115.53,312.59,108.34,310.2,108.34,310.2Z"
            style="fill:#60D2CE"></path>
        <path
            d="M108.34,310.2a177,177,0,0,0-7.13-35.85,13.58,13.58,0,0,1-.46-7.71s7.63-2.21,8.25-2.28l2.08-.2a100.24,100.24,0,0,1,14.29-.49c1.19.07,2.4.17,3.59.27.39,0,7.11,1.13,7.49,1.17,0,0,3.57,5.79,3.94,11.33a96.69,96.69,0,0,1,.49,12.84c0,5-.42,19.25-.42,19.25-.91,2-12.24.37-12.24.37C115.53,312.59,108.34,310.2,108.34,310.2Z"
            style="fill:#fff;opacity:0.7000000000000001"></path>
        <path d="M126.46,277.54a.48.48,0,0,1-.48.49.49.49,0,1,1,0-1A.48.48,0,0,1,126.46,277.54Z"
            style="opacity:0.2"></path>
        <path d="M128.24,287.83a.49.49,0,1,1-.49-.48A.49.49,0,0,1,128.24,287.83Z"
            style="opacity:0.2"></path>
        <path d="M128.73,297.65a.49.49,0,1,1-.49-.49A.49.49,0,0,1,128.73,297.65Z"
            style="opacity:0.2"></path>
        <path d="M129.21,307.1a.48.48,0,0,1-.48.48.49.49,0,1,1,0-1A.48.48,0,0,1,129.21,307.1Z"
            style="opacity:0.2"></path>
        <path
            d="M118.37,260.74c12.71,0,16.82,9.63,16.82,9.63l-6-1.22s-1.79,5.41-3.73,6.89c0,0-7.65-1.79-11.46-5.9l-5.51,1.52S105.59,260.78,118.37,260.74Z"
            style="fill:#60D2CE"></path>
        <path
            d="M118.37,260.74c12.71,0,16.82,9.63,16.82,9.63l-6-1.22s-1.79,5.41-3.73,6.89c0,0-7.65-1.79-11.46-5.9l-5.51,1.52S105.59,260.78,118.37,260.74Z"
            style="fill:#fff;opacity:0.6000000000000001"></path>
        <path
            d="M127.22,265.69c1.51,5.5-1.74,10.35-1.74,10.35-9.63-3-13.61-11.91-13.61-11.91,2.88-3.17,1.06-11.54-.34-16.11l3.86,2.89,5.74,4.29a10.58,10.58,0,0,0,.27,3.53c.44,1.82,1.22,3.54,2.07,3.9Z"
            style="fill:#b97964"></path>
        <path
            d="M121.4,258.73c-2.29-.51-5.28-2.88-5.77-5.22a11.36,11.36,0,0,1-.24-2.6l5.74,4.29A10.58,10.58,0,0,0,121.4,258.73Z"
            style="opacity:0.2"></path>
        <path
            d="M106.31,243.62c3.13,6.88,4.31,9.86,9.28,12.3,7.48,3.68,15.31-1.17,14.31-8.73-.9-6.8-5.88-16.91-13.9-17.46A9.68,9.68,0,0,0,106.31,243.62Z"
            style="fill:#b97964"></path>
        <path
            d="M115.82,242.55c.24.59.74,1,1.12.84s.51-.7.27-1.29-.75-1-1.13-.84S115.58,242,115.82,242.55Z"
            style="fill:#263238"></path>
        <path
            d="M123.22,239.88c.23.59.74,1,1.12.84s.5-.7.27-1.29-.75-1-1.13-.84S123,239.3,123.22,239.88Z"
            style="fill:#263238"></path>
        <path d="M123.32,238.68l1.25-.87S124.29,239.15,123.32,238.68Z" style="fill:#263238"></path>
        <path d="M121.46,241.92a18.77,18.77,0,0,0,3.61,3.08c-.48,1-1.93,1.08-1.93,1.08Z"
            style="fill:#a24e3f"></path>
        <path
            d="M113.22,239.22a.33.33,0,0,0,.23-.17,2.72,2.72,0,0,1,2.11-1.47.34.34,0,0,0,.33-.38.41.41,0,0,0-.42-.35,3.42,3.42,0,0,0-2.69,1.83.39.39,0,0,0,.44.54Z"
            style="fill:#263238"></path>
        <path
            d="M124.71,235a.34.34,0,0,0,.24-.13.36.36,0,0,0-.08-.51,3.89,3.89,0,0,0-3.34-.84.34.34,0,0,0-.22.45.41.41,0,0,0,.48.25,3.11,3.11,0,0,1,2.64.69A.37.37,0,0,0,124.71,235Z"
            style="fill:#263238"></path>
        <path d="M115.92,241.35l1.25-.87S116.89,241.82,115.92,241.35Z" style="fill:#263238"></path>
        <path
            d="M110.89,247s2.46-5.93-1.86-13c0,0,7.21-5.58,14.54-.92,0,0-7.74-8.73-18.56-1.49s.49,16.71,2.15,17.34S110.89,247,110.89,247Z"
            style="fill:#263238"></path>
        <path
            d="M106.18,250.17a6.09,6.09,0,0,0,4.39,1.48c2.05-.19,2.2-2.32.9-4-1.17-1.5-3.65-3.2-5.35-2.19S104.64,248.84,106.18,250.17Z"
            style="fill:#b97964"></path>
        <path
            d="M123.91,247.67a20.85,20.85,0,0,0-.36,3.06c-.18,0-.36.05-.54.06-2.45.26-3.67-.43-4.28-1.27a3,3,0,0,1-.54-1.4,3,3,0,0,1,0-.86,11.49,11.49,0,0,0,4.9.48C123.59,247.71,123.91,247.67,123.91,247.67Z"
            style="fill:#263238"></path>
        <path
            d="M123.07,247.74l-.13.9c-2.3.24-4,.1-4.75-.52a3,3,0,0,1,0-.86A11.49,11.49,0,0,0,123.07,247.74Z"
            style="fill:#fff"></path>
        <path
            d="M123,250.79c-2.45.26-3.67-.43-4.28-1.27a8.07,8.07,0,0,1,2.77.25A3,3,0,0,1,123,250.79Z"
            style="fill:#e52c2c"></path>
        <path d="M120.21,288.71l6.59-3.11,0,8.08s-6,2.41-7.16-.75Z" style="fill:#b97964"></path>
        <polygon points="133.97 286.37 131.57 293.3 126.75 293.68 126.8 285.6 133.97 286.37"
            style="fill:#b97964"></polygon>
        <path d="M170,283.47l7.09-1.64-5-6.32s-6.24,1.85-5.16,5Z" style="fill:#b97964"></path>
        <polygon points="181.97 276.89 176.12 272.83 172.1 275.51 177.13 281.83 181.97 276.89"
            style="fill:#b97964"></polygon>
        <path
            d="M104.68,286.43c-.73-2.87-1.56-5.86-2.5-8.91a10,10,0,0,1,2.9-2.95S107,282.05,104.68,286.43Z"
            style="opacity:0.1"></path>
        <path
            d="M104.69,275.73c-.94,1.68-2,3.51-2.88,5.3s-1.81,3.6-2.57,5.37a24.68,24.68,0,0,0-1.65,5c-.15.66-.06,1.22-.2.91a1.42,1.42,0,0,0-.25-.33.67.67,0,0,0-.17-.12c-.08,0,0,.06.2.13a6.62,6.62,0,0,0,2,.35,20.61,20.61,0,0,0,2.7-.05,50.63,50.63,0,0,0,5.91-.8c4-.75,8.13-1.74,12.13-2.81l.07,0a2.3,2.3,0,0,1,1.64,4.26,80.39,80.39,0,0,1-12.15,5.15,51.54,51.54,0,0,1-6.61,1.72,26.23,26.23,0,0,1-3.66.42,14.41,14.41,0,0,1-4.33-.38,9.06,9.06,0,0,1-2.69-1.21,7.78,7.78,0,0,1-1.36-1.19,6.88,6.88,0,0,1-1.1-1.67,9,9,0,0,1-.78-3,14.32,14.32,0,0,1,0-2.37,29.44,29.44,0,0,1,1.83-7.29,68.71,68.71,0,0,1,6-12.15,4.62,4.62,0,0,1,8,4.65Z"
            style="fill:#b97863"></path>
        <path
            d="M100.75,266.64s9.29,1.66,2.92,16c0,0-4.12,7.46-4.3,9.18l-6.17,9.27s-6.51-1-4.8-9.72C92.4,271,100.75,266.64,100.75,266.64Z"
            style="fill:#60D2CE"></path>
        <path
            d="M100.75,266.64s9.29,1.66,2.92,16c0,0-4.12,7.46-4.3,9.18l-6.17,9.27s-6.51-1-4.8-9.72C92.4,271,100.75,266.64,100.75,266.64Z"
            style="fill:#fff;opacity:0.7000000000000001"></path>
        <path d="M101.31,292.49,99,290.68s-8.11,3.89-9.93,10.39l6.11.58S98,295.11,101.31,292.49Z"
            style="fill:#60D2CE"></path>
        <path d="M101.31,292.49,99,290.68s-8.11,3.89-9.93,10.39l6.11.58S98,295.11,101.31,292.49Z"
            style="fill:#fff;opacity:0.6000000000000001"></path>
    </g>
</svg>
